<svg style="overflow: hidden; position: relative; left: -0.5px; top: 0.400002px;" xmlns="http://www.w3.org/2000/svg" width="790" version="1.1" height="680"><desc>Created with Raphaël 2.0.1</desc><defs></defs><rect style="" stroke="none" fill="#242424" ry="0" rx="0" r="0" height="680" width="790" y="0" x="0"></rect><rect opacity="0.2" stroke-width="0" style="opacity: 0.2;" transform="matrix(1,0,0,1,-79,-143.5)" stroke="none" fill="#ffffff" ry="5" rx="5" r="5" height="287" width="158" y="81" x="510"></rect><rect opacity="0.2" stroke-width="0" style="opacity: 0.2;" transform="matrix(1,0,0,1,-45.5,-108)" stroke="none" fill="#ffffff" ry="5" rx="5" r="5" height="216" width="91" y="83" x="460"></rect><rect opacity="0.2" stroke-width="0" style="opacity: 0.2;" transform="matrix(1,0,0,1,-50.5,-95)" stroke="none" fill="#ffffff" ry="5" rx="5" r="5" height="190" width="101" y="163" x="98"></rect><rect opacity="0.2" stroke-width="0" style="opacity: 0.2;" transform="matrix(1,0,0,1,-68,-157.5)" stroke="none" fill="#ffffff" ry="5" rx="5" r="5" height="315" width="136" y="378" x="441"></rect><rect opacity="0.2" stroke-width="0" style="opacity: 0.2;" transform="matrix(1,0,0,1,-63.5,-105)" stroke="none" fill="#ffffff" ry="5" rx="5" r="5" height="210" width="127" y="318" x="531"></rect><rect opacity="0.2" stroke-width="0" style="opacity: 0.2;" transform="matrix(1,0,0,1,-73,-159.5)" stroke="none" fill="#ffffff" ry="5" rx="5" r="5" height="319" width="146" y="596" x="653"></rect><rect opacity="0.2" stroke-width="0" style="opacity: 0.2;" transform="matrix(1,0,0,1,-77.5,-108.5)" stroke="none" fill="#ffffff" ry="5" rx="5" r="5" height="217" width="155" y="459" x="258"></rect><rect opacity="0.2" stroke-width="0" style="opacity: 0.2;" transform="matrix(1,0,0,1,-63,-131)" stroke="none" fill="#ffffff" ry="5" rx="5" r="5" height="262" width="126" y="107" x="220"></rect><rect opacity="0.2" stroke-width="0" style="opacity: 0.2;" transform="matrix(1,0,0,1,-70.5,-104)" stroke="none" fill="#ffffff" ry="5" rx="5" r="5" height="208" width="141" y="152" x="103"></rect><rect opacity="0.2" stroke-width="0" style="opacity: 0.2;" transform="matrix(1,0,0,1,-62.5,-122)" stroke="none" fill="#ffffff" ry="5" rx="5" r="5" height="244" width="125" y="129" x="628"></rect></svg>