<?xml version="1.0"?>
<svg width="465" height="124" xmlns="http://www.w3.org/2000/svg">
 <!-- Created with Method Draw - http://github.com/duopixel/Method-Draw/ -->
 <defs>
  <filter id="svg_1_blur">
   <feGaussianBlur stdDeviation="0" in="SourceGraphic"/>
  </filter>
 </defs>
 <g>
  <title>background</title>
  <rect fill="none" id="canvas_background" height="126" width="467" y="-1" x="-1"/>
  <g display="none" overflow="visible" y="0" x="0" height="100%" width="100%" id="canvasGrid">
   <rect fill="url(#gridpattern)" stroke-width="0" y="0" x="0" height="100%" width="100%"/>
  </g>
 </g>
 <g>
  <title>Layer 1</title>
  <text filter="url(#svg_1_blur)" font-weight="bold" stroke="#000" transform="rotate(-6 182.77796936035156,75.16440582275386) matrix(3.9191015449889974,0,0,3.2926939212004194,-222.84908693003808,-9.323361053557305) " stroke-dasharray="5,5" xml:space="preserve" text-anchor="left" font-family="Helvetica, Arial, sans-serif" font-size="24" id="svg_1" y="34.007137" x="58.850243" stroke-width="0" fill="#000000">Domino</text>
  <path stroke="#000" d="m418.20755,78.098587c0,-1.210526 0.707581,-1.872086 2.043488,-2.421051c0.844879,-0.347198 0.729614,-1.274582 3.065216,-2.118423c0.916077,-0.330978 1.518555,-0.551926 2.043457,-1.210526c0.234772,-0.29454 1.321014,-0.391266 2.043488,-0.60527c0.722473,-0.213989 1.198608,-0.560684 2.043488,-0.907883c1.335876,-0.548981 2.397186,-0.818756 4.086945,-1.513168c1.335907,-0.548965 2.528076,-1.255722 3.065216,-1.513153c1.201141,-0.575638 1.970001,-1.092819 4.086975,-1.815796c1.496918,-0.511215 4.34903,-1.149078 5.108673,-1.513153c1.698669,-0.814072 2.674225,-1.838821 3.065216,-2.118423c1.105927,-0.790817 4.002777,-1.024963 5.108704,-1.815781c0.782013,-0.559189 2.540314,-1.157196 3.065216,-1.815796c0.469513,-0.589066 1.021759,-0.907898 2.043488,-1.210526c1.021729,-0.302628 1.95929,-0.419708 3.065216,-1.210526c0.391022,-0.279587 1.021729,-0.60527 3.065216,-0.907898l0,-0.302628" id="svg_2" fill-opacity="null" stroke-opacity="null" stroke-dasharray="2,2" stroke-width="0" fill="none"/>
  <g transform="rotate(-46 409.16479492187494,62.71065521240237) " id="svg_29">
   <path stroke="#000" id="svg_12" d="m392.325836,6.528215l33.51535,0l0,112.364843l-33.51535,0l0,-112.364843z" stroke-opacity="null" stroke-dasharray="5,5" stroke-width="0" fill="#000000"/>
   <path stroke="#000" id="svg_13" d="m392.338837,60.678513l33.664886,0l0,5.976852l-33.664886,0l0,-5.976852z" stroke-opacity="null" stroke-dasharray="5,5" stroke-width="0" fill="#ffffff"/>
   <g id="svg_25">
    <path stroke="#000" id="svg_15" d="m400.876831,33.234352l0,0c0,-4.648806 3.532074,-8.417398 7.888428,-8.417398l0,0c2.092468,0 4.098724,0.886803 5.57785,2.465389c1.479523,1.578583 2.310547,3.719585 2.310547,5.952009l0,0c0,4.648792 -3.531586,8.417397 -7.888397,8.417397l0,0c-4.356354,0 -7.888428,-3.768604 -7.888428,-8.417397zm3.944244,0l0,0c0,2.324425 1.766022,4.208691 3.944183,4.208691c2.17865,0 3.944183,-1.884266 3.944183,-4.208691c0,-2.324434 -1.765533,-4.208704 -3.944183,-4.208704l0,0c-2.178162,0 -3.944183,1.88427 -3.944183,4.208704z" stroke-opacity="null" stroke-dasharray="5,5" stroke-width="0" fill="#ffffff"/>
    <path stroke="#000" id="svg_18" d="m403.210175,33.298641l1.056885,-2.841536l2.770752,-1.756042l3.42334,0l2.76886,1.756042l1.057037,2.841536l-1.057037,2.841259l-2.76886,1.756264l-3.42334,0l-2.770752,-1.756264l-1.056885,-2.841259z" fill-opacity="null" stroke-opacity="null" stroke-dasharray="5,5" stroke-width="0" fill="#ffffff"/>
   </g>
   <g id="svg_28">
    <path stroke="#000" id="svg_26" d="m400.876831,92.625168l0,0c0,-4.648811 3.532074,-8.417412 7.888428,-8.417412l0,0c2.092468,0 4.098724,0.886818 5.57785,2.465401c1.479523,1.578583 2.310547,3.719589 2.310547,5.952011l0,0c0,4.648781 -3.531586,8.417404 -7.888397,8.417404l0,0c-4.356354,0 -7.888428,-3.768623 -7.888428,-8.417404zm3.944244,0l0,0c0,2.324425 1.766022,4.208694 3.944183,4.208694c2.17865,0 3.944183,-1.88427 3.944183,-4.208694c0,-2.324432 -1.765533,-4.208702 -3.944183,-4.208702l0,0c-2.178162,0 -3.944183,1.88427 -3.944183,4.208702z" stroke-opacity="null" stroke-dasharray="5,5" stroke-width="0" fill="#ffffff"/>
    <path stroke="#000" id="svg_27" d="m403.210175,92.689438l1.056885,-2.841522l2.770752,-1.756042l3.42334,0l2.76886,1.756042l1.057037,2.841522l-1.057037,2.841278l-2.76886,1.756256l-3.42334,0l-2.770752,-1.756256l-1.056885,-2.841278z" fill-opacity="null" stroke-opacity="null" stroke-dasharray="5,5" stroke-width="0" fill="#ffffff"/>
   </g>
  </g>
  <g transform="rotate(44 410.5964965820313,63.160297393798814) " opacity="0.85" id="svg_38">
   <path stroke="#000" id="svg_30" d="m393.757568,6.97787l33.51535,0l0,112.36485l-33.51535,0l0,-112.36485z" stroke-opacity="null" stroke-dasharray="5,5" stroke-width="0" fill="#000000"/>
   <path stroke="#000" id="svg_31" d="m393.770569,61.128159l33.664886,0l0,5.976845l-33.664886,0l0,-5.976845z" stroke-opacity="null" stroke-dasharray="5,5" stroke-width="0" fill="#ffffff"/>
   <g id="svg_34">
    <path stroke="#000" id="svg_32" d="m402.308563,33.68401l0,0c0,-4.648809 3.532074,-8.417398 7.888428,-8.417398l0,0c2.092468,0 4.098724,0.886799 5.57785,2.465389c1.479523,1.578581 2.310547,3.719589 2.310547,5.952009l0,0c0,4.648792 -3.531586,8.417389 -7.888397,8.417389l0,0c-4.356354,0 -7.888428,-3.768597 -7.888428,-8.417389zm3.944244,0l0,0c0,2.324421 1.766022,4.208691 3.944183,4.208691c2.17865,0 3.944183,-1.88427 3.944183,-4.208691c0,-2.32444 -1.765533,-4.20871 -3.944183,-4.20871l0,0c-2.178162,0 -3.944183,1.88427 -3.944183,4.20871z" stroke-opacity="null" stroke-dasharray="5,5" stroke-width="0" fill="#ffffff"/>
    <path stroke="#000" id="svg_33" d="m404.641907,33.748291l1.056885,-2.84153l2.770752,-1.756041l3.42334,0l2.76886,1.756041l1.057037,2.84153l-1.057037,2.841259l-2.76886,1.756271l-3.42334,0l-2.770752,-1.756271l-1.056885,-2.841259z" fill-opacity="null" stroke-opacity="null" stroke-dasharray="5,5" stroke-width="0" fill="#ffffff"/>
   </g>
   <g id="svg_37">
    <path stroke="#000" id="svg_35" d="m402.308563,93.074829l0,0c0,-4.648819 3.532074,-8.417412 7.888428,-8.417412l0,0c2.092468,0 4.098724,0.886803 5.57785,2.465385c1.479523,1.57859 2.310547,3.719597 2.310547,5.952026l0,0c0,4.648781 -3.531586,8.417389 -7.888397,8.417389l0,0c-4.356354,0 -7.888428,-3.768608 -7.888428,-8.417389zm3.944244,0l0,0c0,2.324417 1.766022,4.208679 3.944183,4.208679c2.17865,0 3.944183,-1.884262 3.944183,-4.208679c0,-2.32444 -1.765533,-4.20871 -3.944183,-4.20871l0,0c-2.178162,0 -3.944183,1.88427 -3.944183,4.20871z" stroke-opacity="null" stroke-dasharray="5,5" stroke-width="0" fill="#ffffff"/>
    <path stroke="#000" id="svg_36" d="m404.641907,93.139099l1.056885,-2.841522l2.770752,-1.756058l3.42334,0l2.76886,1.756058l1.057037,2.841522l-1.057037,2.84127l-2.76886,1.756264l-3.42334,0l-2.770752,-1.756264l-1.056885,-2.84127z" fill-opacity="null" stroke-opacity="null" stroke-dasharray="5,5" stroke-width="0" fill="#ffffff"/>
   </g>
  </g>
 </g>
</svg>