<?xml version="1.0"?>
<svg width="465" height="124" xmlns="http://www.w3.org/2000/svg">
 <!-- Created with Method Draw - http://github.com/duopixel/Method-Draw/ -->
 <defs>
  <filter id="svg_1_blur">
   <feGaussianBlur stdDeviation="0"/>
  </filter>
 </defs>
 <g>
  <title>background</title>
  <rect x="-1" y="-1" width="467" height="126" id="canvas_background" fill="none"/>
  <g id="canvasGrid" display="none">
   <rect id="svg_3" width="100%" height="100%" x="0" y="0" stroke-width="0" fill="url(#gridpattern)"/>
  </g>
 </g>
 <g>
  <title>Layer 1</title>
  <text fill="#d6c9ff" stroke-width="0" x="58.850243" y="34.007137" id="svg_1" font-size="24" font-family="Helvetica, Arial, sans-serif" text-anchor="left" xml:space="preserve" stroke-dasharray="5,5" transform="rotate(-6 182.77792358398452,75.20626831054678) matrix(3.9191015449889974,0,0,3.2926939212004194,-222.84908693003808,-9.323361053557305) " stroke="#000" font-weight="bold" filter="url(#svg_1_blur)">Domino</text>
  <path fill="none" stroke-width="0" stroke-dasharray="2,2" stroke-opacity="null" fill-opacity="null" id="svg_2" d="m418.20755,78.098587c0,-1.210526 0.707581,-1.872086 2.043488,-2.421043c0.844879,-0.347206 0.729614,-1.274597 3.065216,-2.118431c0.916077,-0.330971 1.518555,-0.551926 2.043457,-1.210526c0.234772,-0.29454 1.321014,-0.391266 2.043488,-0.60527c0.722473,-0.213989 1.198608,-0.560684 2.043488,-0.90789c1.335876,-0.548973 2.397186,-0.818748 4.086945,-1.513153c1.335907,-0.548973 2.528076,-1.25573 3.065216,-1.513161c1.201141,-0.575645 1.970001,-1.092819 4.086975,-1.815796c1.496918,-0.511215 4.34903,-1.149078 5.108673,-1.513153c1.698669,-0.814072 2.674225,-1.838825 3.065216,-2.118423c1.105927,-0.790821 4.002777,-1.02496 5.108704,-1.815781c0.782013,-0.559189 2.540314,-1.1572 3.065216,-1.8158c0.469513,-0.589058 1.021759,-0.90789 2.043488,-1.210522c1.021729,-0.302628 1.95929,-0.419708 3.065216,-1.210529c0.391022,-0.279591 1.021729,-0.60527 3.065216,-0.907898l0,-0.30262" stroke="#000"/>
  <path transform="rotate(-46 409.10833740234375,62.76911544799812) " fill="#d6c9ff" stroke-width="0" stroke-dasharray="5,5" stroke-opacity="null" d="m392.350677,6.58669l33.51535,0l0,112.364848l-33.51535,0l0,-112.364848z" id="svg_12" stroke="#000"/>
  <path transform="rotate(-46 409.85717773437506,63.37028121948239) " fill="#ffffff" stroke-width="0" stroke-dasharray="5,5" stroke-opacity="null" d="m393.02478,60.381859l33.664856,0l0,5.976845l-33.664856,0l0,-5.976845z" id="svg_13" stroke="#000"/>
  <g transform="rotate(-46 387.68377685546875,42.522087097168) " id="svg_25">
   <path fill="#ffffff" stroke-width="0" stroke-dasharray="5,5" stroke-opacity="null" d="m379.795349,42.522087l0,0c0,-4.648796 3.532074,-8.417397 7.888428,-8.417397l0,0c2.092468,0 4.098724,0.88681 5.57785,2.465385c1.479523,1.57859 2.310547,3.719593 2.310547,5.952011l0,0c0,4.648792 -3.531586,8.4174 -7.888397,8.4174l0,0c-4.356354,0 -7.888428,-3.768608 -7.888428,-8.4174zm3.944244,0l0,0c0,2.324432 1.766022,4.208691 3.944183,4.208691c2.17865,0 3.944183,-1.884258 3.944183,-4.208691c0,-2.324429 -1.765533,-4.208698 -3.944183,-4.208698l0,0c-2.178162,0 -3.944183,1.88427 -3.944183,4.208698z" id="svg_15" stroke="#000"/>
   <path fill="#ffffff" stroke-width="0" stroke-dasharray="5,5" stroke-opacity="null" fill-opacity="null" d="m382.128693,42.58638l1.056885,-2.84153l2.770752,-1.75605l3.42334,0l2.76886,1.75605l1.057037,2.84153l-1.057037,2.841259l-2.76886,1.75626l-3.42334,0l-2.770752,-1.75626l-1.056885,-2.841259z" id="svg_18" stroke="#000"/>
  </g>
  <g transform="rotate(-46 430.40597534179693,83.7784194946289) " id="svg_28">
   <path fill="#ffffff" stroke-width="0" stroke-dasharray="5,5" stroke-opacity="null" d="m422.517548,83.778419l0,0c0,-4.648811 3.532074,-8.417404 7.888428,-8.417404l0,0c2.092468,0 4.098724,0.886803 5.57785,2.465393c1.479523,1.578583 2.310547,3.719597 2.310547,5.952011l0,0c0,4.648781 -3.531586,8.417404 -7.888397,8.417404l0,0c-4.356354,0 -7.888428,-3.768623 -7.888428,-8.417404zm3.944244,0l0,0c0,2.324425 1.766022,4.208694 3.944183,4.208694c2.17865,0 3.944183,-1.88427 3.944183,-4.208694c0,-2.324425 -1.765533,-4.208694 -3.944183,-4.208694l0,0c-2.178162,0 -3.944183,1.88427 -3.944183,4.208694z" id="svg_26" stroke="#000"/>
   <path fill="#ffffff" stroke-width="0" stroke-dasharray="5,5" stroke-opacity="null" fill-opacity="null" d="m424.850891,83.84269l1.056885,-2.841515l2.770752,-1.75605l3.42334,0l2.76886,1.75605l1.057037,2.841515l-1.057037,2.841286l-2.76886,1.756248l-3.42334,0l-2.770752,-1.756248l-1.056885,-2.841286z" id="svg_27" stroke="#000"/>
  </g>
  <path transform="rotate(44 410.53802490234375,63.10386276245114) " opacity="0.85" fill="#d6c9ff" stroke-width="0" stroke-dasharray="5,5" stroke-opacity="null" d="m393.780365,6.921439l33.51535,0l0,112.364847l-33.51535,0l0,-112.364847z" id="svg_30" stroke="#000"/>
  <path transform="rotate(44 409.9369201660156,63.852725982666016) " opacity="0.85" fill="#ffffff" stroke-width="0" stroke-dasharray="5,5" stroke-opacity="null" d="m393.104462,60.864307l33.664886,0l0,5.976841l-33.664886,0l0,-5.976841z" id="svg_31" stroke="#000"/>
  <g transform="rotate(44 430.78503417968744,41.6792869567871) " opacity="0.85" id="svg_34">
   <path fill="#ffffff" stroke-width="0" stroke-dasharray="5,5" stroke-opacity="null" d="m422.896637,41.679291l0,0c0,-4.648811 3.532074,-8.4174 7.888428,-8.4174l0,0c2.092468,0 4.098724,0.886799 5.57785,2.465389c1.479523,1.578579 2.310547,3.719589 2.310547,5.952011l0,0c0,4.648792 -3.531586,8.417389 -7.888397,8.417389l0,0c-4.356354,0 -7.888428,-3.768597 -7.888428,-8.417389zm3.944244,0l0,0c0,2.324421 1.766022,4.208691 3.944183,4.208691c2.17865,0 3.944183,-1.88427 3.944183,-4.208691c0,-2.32444 -1.765533,-4.20871 -3.944183,-4.20871l0,0c-2.178162,0 -3.944183,1.88427 -3.944183,4.20871z" id="svg_32" stroke="#000"/>
   <path fill="#ffffff" stroke-width="0" stroke-dasharray="5,5" stroke-opacity="null" fill-opacity="null" d="m425.22998,41.743572l1.056885,-2.841534l2.770752,-1.756039l3.42334,0l2.76886,1.756039l1.057037,2.841534l-1.057037,2.841259l-2.76886,1.756271l-3.42334,0l-2.770752,-1.756271l-1.056885,-2.841259z" id="svg_33" stroke="#000"/>
  </g>
  <g transform="rotate(44 389.5287170410157,84.40145874023436) " opacity="0.85" id="svg_37">
   <path fill="#ffffff" stroke-width="0" stroke-dasharray="5,5" stroke-opacity="null" d="m381.64032,84.401474l0,0c0,-4.648819 3.532074,-8.417412 7.888428,-8.417412l0,0c2.092468,0 4.098724,0.886803 5.57785,2.465385c1.479523,1.57859 2.310547,3.719597 2.310547,5.952026l0,0c0,4.648781 -3.531586,8.417389 -7.888397,8.417389l0,0c-4.356354,0 -7.888428,-3.768608 -7.888428,-8.417389zm3.944244,0l0,0c0,2.324417 1.766022,4.208679 3.944183,4.208679c2.17865,0 3.944183,-1.884262 3.944183,-4.208679c0,-2.32444 -1.765533,-4.20871 -3.944183,-4.20871l0,0c-2.178162,0 -3.944183,1.88427 -3.944183,4.20871z" id="svg_35" stroke="#000"/>
   <path fill="#ffffff" stroke-width="0" stroke-dasharray="5,5" stroke-opacity="null" fill-opacity="null" d="m383.973663,84.465744l1.056885,-2.841522l2.770752,-1.756058l3.42334,0l2.76886,1.756058l1.057037,2.841522l-1.057037,2.84127l-2.76886,1.756264l-3.42334,0l-2.770752,-1.756264l-1.056885,-2.84127z" id="svg_36" stroke="#000"/>
  </g>
 </g>
</svg>